# xmcd CD database file
#
# Track frame offsets:
#	183
#	16918
#	34673
#	52530
#	70295
#	88550
#	106960
#	124790
#	142895
#	160610
#	177550
#	194590
#	212773
#	229928
#
# Disc length: 3315 seconds
#
# Revision: 2
# Processed by: cddbd v1.5.2PL0 Copyright (c) Steve Scherf et al.
# Submitted via: CDex 1.51
#
DISCID=b60cf10e
DTITLE=Various Artist - This is Dance Hall - Volume One
DYEAR=1998
DGENRE=DANCEHALL
TTITLE0=marcia griffitts - Sugar Wooga Man
TTITLE1=anthony haughton - How Can I Ease The Pain
TTITLE2=singing melody - Best Friends
TTITLE3=frankie paul - My Love
TTITLE4=kevin b feat. cool mb - Every Kind Of People
TTITLE5=jerry johnson - See-A-RRock
TTITLE6=reverend badoo - Send Down Some!
TTITLE7=jr down - Wear It Out
TTITLE8=raven - Struggle
TTITLE9=shaggy - Science
TTITLE10=dollar man - Net Talk
TTITLE11=judas - Pretty Girls
TTITLE12=white mice - The Love's Gone
TTITLE13=the livin'crew - Dus Dis
EXTD=YEAR: 1998
EXTT0=
EXTT1=
EXTT2=
EXTT3=
EXTT4=
EXTT5=
EXTT6=
EXTT7=
EXTT8=
EXTT9=
EXTT10=
EXTT11=
EXTT12=
EXTT13=
PLAYORDER=
